<?xml version="1.0" encoding="UTF-8"?>
<svg xmlns="http://www.w3.org/2000/svg" xmlns:xlink="http://www.w3.org/1999/xlink" width="240pt" height="186pt" viewBox="0 0 240 186" version="1.1">
<g id="surface1">
<path style=" stroke:none;fill-rule:nonzero;fill:rgb(34.509804%,39.607843%,94.901961%);fill-opacity:1;" d="M 203.171875 16.5625 C 187.875 9.542969 171.46875 4.367188 154.320312 1.40625 C 154.007812 1.347656 153.695312 1.492188 153.535156 1.777344 C 151.425781 5.53125 149.085938 10.425781 147.449219 14.277344 C 129.003906 11.515625 110.652344 11.515625 92.582031 14.277344 C 90.945312 10.34375 88.523438 5.53125 86.40625 1.777344 C 86.246094 1.5 85.933594 1.355469 85.621094 1.40625 C 68.480469 4.359375 52.074219 9.53125 36.769531 16.5625 C 36.636719 16.621094 36.523438 16.714844 36.449219 16.839844 C 5.332031 63.34375 -3.191406 108.707031 0.992188 153.503906 C 1.011719 153.722656 1.132812 153.933594 1.304688 154.066406 C 21.832031 169.148438 41.71875 178.304688 61.234375 184.375 C 61.546875 184.46875 61.875 184.355469 62.074219 184.097656 C 66.691406 177.792969 70.804688 171.140625 74.335938 164.148438 C 74.542969 163.738281 74.34375 163.253906 73.917969 163.089844 C 67.390625 160.613281 61.175781 157.59375 55.199219 154.164062 C 54.722656 153.886719 54.6875 153.210938 55.121094 152.886719 C 56.378906 151.941406 57.636719 150.960938 58.839844 149.96875 C 59.058594 149.789062 59.359375 149.75 59.617188 149.867188 C 98.894531 167.804688 141.414062 167.804688 180.230469 149.867188 C 180.484375 149.742188 180.789062 149.78125 181.015625 149.960938 C 182.214844 150.953125 183.472656 151.941406 184.742188 152.886719 C 185.175781 153.210938 185.148438 153.886719 184.675781 154.164062 C 178.695312 157.660156 172.480469 160.613281 165.945312 163.082031 C 165.519531 163.242188 165.332031 163.738281 165.539062 164.148438 C 169.140625 171.132812 173.257812 177.78125 177.789062 184.089844 C 177.976562 184.355469 178.320312 184.46875 178.632812 184.375 C 198.242188 178.304688 218.125 169.148438 238.65625 154.066406 C 238.835938 153.933594 238.949219 153.734375 238.964844 153.515625 C 243.972656 101.722656 230.585938 56.730469 203.480469 16.847656 C 203.414062 16.714844 203.300781 16.621094 203.171875 16.5625 Z M 80.199219 126.226562 C 68.375 126.226562 58.632812 115.367188 58.632812 102.027344 C 58.632812 88.6875 68.1875 77.828125 80.199219 77.828125 C 92.308594 77.828125 101.957031 88.785156 101.769531 102.027344 C 101.769531 115.367188 92.214844 126.226562 80.199219 126.226562 Z M 159.949219 126.226562 C 148.121094 126.226562 138.378906 115.367188 138.378906 102.027344 C 138.378906 88.6875 147.933594 77.828125 159.949219 77.828125 C 172.054688 77.828125 181.707031 88.785156 181.515625 102.027344 C 181.515625 115.367188 172.054688 126.226562 159.949219 126.226562 Z M 159.949219 126.226562 "/>
</g>
</svg>
