<svg width="20" height="25" viewBox="0 0 20 25" fill="none" xmlns="http://www.w3.org/2000/svg">
  <path fill-rule="evenodd" clip-rule="evenodd" d="M18.0111 19.038L7.16408 22.225C7.08913 22.2482 7.00945 22.2516 6.9328 22.2348C6.85615 22.218 6.78515 22.1817 6.72673 22.1293C6.66832 22.0769 6.62447 22.0103 6.59947 21.9359C6.57446 21.8616 6.56916 21.782 6.58408 21.705L10.4611 3.26796C10.5341 2.92296 11.0131 2.86796 11.1651 3.18796L18.3381 18.326C18.3697 18.3936 18.3863 18.4673 18.3866 18.5419C18.3869 18.6166 18.3709 18.6904 18.3398 18.7582C18.3087 18.8261 18.2632 18.8864 18.2064 18.9348C18.1496 18.9833 18.083 19.0178 18.0111 19.038ZM19.8711 18.286L11.5631 0.75796C11.4593 0.541475 11.2989 0.357045 11.099 0.224153C10.899 0.0912603 10.6669 0.0148385 10.4271 0.00295972C10.187 -0.0131405 9.94717 0.0366657 9.73338 0.146996C9.51959 0.257326 9.34003 0.423984 9.21408 0.62896L0.20508 15.129C-0.0739201 15.58 -0.0679201 16.137 0.22108 16.584L4.62508 23.362C4.79252 23.6168 5.03757 23.8109 5.32395 23.9155C5.61033 24.0202 5.9228 24.0298 6.21508 23.943L18.9971 20.187C19.3891 20.071 19.7091 19.797 19.8771 19.431C19.9595 19.2511 20.0015 19.0554 20.0001 18.8576C19.9987 18.6598 19.954 18.4646 19.8691 18.286H19.8711Z" fill="currentColor"/>
</svg>
