<?xml version="1.0" encoding="utf-8"?><svg version="1.1" id="Layer_1" xmlns="http://www.w3.org/2000/svg" xmlns:xlink="http://www.w3.org/1999/xlink" x="0px" y="0px" viewBox="0 0 122.88 75.42" style="enable-background:new 0 0 122.88 75.42" xml:space="preserve"><style type="text/css">.st0{fill-rule:evenodd;clip-rule:evenodd;fill:#CC0000;}</style><g><path class="st0" d="M3.79,75.42h42.8c0,0-8.18-37.33,18.91-52.45c5.91-2.87,24.71-13.6,55.48,9.16c0.98-0.81,1.9-1.46,1.9-1.46 S94.71,2.55,63.34,5.69C47.52,7.1,28.12,21.46,16.74,40.42C5.54,59.08,3.84,74.92,3.79,75.41L3.79,75.42L3.79,75.42z M48.22,64.58 c0.11,2.87,0.38,5.2,0.65,6.83l6.5,2.33c-0.49-2.11-0.98-4.5-1.3-7.04L48.22,64.58L48.22,64.58z M8.94,49.3l-6.23-2.28 c-1.03,2.33-2.17,5.04-2.71,6.5l6.23,2.28C6.93,53.96,8.07,51.31,8.94,49.3L8.94,49.3z M25.3,25.09l-3.85-3.36 c-1.41,1.35-2.76,2.71-4.01,4.06l4.17,3.58C22.76,27.9,24,26.44,25.3,25.09L25.3,25.09z M49.03,50.82l4.39,3.47 c0.22-2.11,0.6-4.23,1.14-6.34l-3.9-3.09C49.95,46.87,49.47,48.87,49.03,50.82L49.03,50.82z M56.89,33.37l2.6,3.9 c0.92-1.35,2-2.6,3.2-3.85l-2.44-3.68C59,30.88,57.86,32.13,56.89,33.37L56.89,33.37z M45.78,8.99l-2.44-3.74 c-1.35,0.7-2.76,1.46-4.23,2.33l2.49,3.79C43.02,10.51,44.37,9.7,45.78,8.99L45.78,8.99z M70.38,23.24l1.25,3.74 c1.57-0.76,3.14-1.41,4.71-1.9l-1.19-3.58C73.31,22.05,71.73,22.65,70.38,23.24L70.38,23.24z M67.78,3.3c0.16,0,0.38,0,0.54,0 L67.24,0c-1.68,0-3.41,0.11-5.2,0.33l1.03,3.2C64.64,3.36,66.21,3.3,67.78,3.3L67.78,3.3z M87.83,20.21l-0.22,3.41 c1.79,0.05,3.58,0.27,5.36,0.65l0.22-3.36C91.35,20.53,89.56,20.32,87.83,20.21L87.83,20.21z M92.97,8.72l0.22-3.63 c-0.49-0.27-1.84-0.92-5.26-1.9l-0.22,3.58C89.5,7.37,91.24,8.02,92.97,8.72L92.97,8.72z"/></g></svg>