<svg data-v-423bf9ae="" xmlns="http://www.w3.org/2000/svg" viewBox="0 0 59.99945071644884 60" class="icon"><!----><!----><!----><!----><g data-v-423bf9ae="" id="6f639fe5-02e1-4640-a1fb-f4b22b64e5ef" transform="matrix(0.5999641134746578,0,0,0.5999641134746578,-437.5538206497148,-266.68705118956507)" stroke="none" ><path d="M729.872 487.327a50.86 50.86 0 0 0-.464 5.033h75.879c-.265-.518-.621-.985-.98-1.442-12.972-16.769-19.95-15.315-29.932-15.741-3.328-.137-5.585-.192-18.832-.192-7.09 0-14.798.018-22.304.038.737-1.746 1.6-3.419 2.525-5.061-2.885 5.106-4.865 10.771-5.805 16.789l.891-4.397c.007-.031.018-.063.024-.094h38.883v5.067h-39.885zM805.885 497.432h-76.438c.08 1.352.206 2.686.388 4.002h70.571c3.146 0 4.907-1.786 5.479-4.002zM733.851 515.257a52.226 52.226 0 0 1-1.98-4.997c6.608 19.89 25.328 34.251 47.433 34.251 20.205 0 37.566-12.007 45.452-29.254h-90.905zM729.38 492.915c-.018.531-.08 1.055-.08 1.589 0 .538.063 1.059.08 1.59v-3.179zM824.77 515.229z"></path><path d="M779.303 444.505c-18.682 0-34.939 10.265-43.524 25.439 6.709-.014 19.775-.022 19.775-.022h.003v-.005c15.444 0 16.018.069 19.035.195l1.868.069c6.507.217 14.505.916 20.798 5.68 3.416 2.584 8.348 8.287 11.288 12.35 2.718 3.758 3.5 8.078 1.652 12.217-1.701 3.804-5.361 6.073-9.793 6.073H730.85l-.884-4.201c.426 2.707 1.037 5.344 1.879 7.886h94.914a49.863 49.863 0 0 0 2.546-15.682c.001-27.611-22.386-49.999-50.002-49.999z"></path></g><!----></svg>
